<svg width="270" height="267" viewBox="0 0 270 267" fill="none" xmlns="http://www.w3.org/2000/svg">
<path d="M100 69C155.228 69 200 113.324 200 168C200 168.673 199.991 169.344 199.978 170.014C199.992 170.491 200 170.97 200 171.45V219C200 245.51 178.51 267 152 267H48C21.4903 267 0 245.51 0 219V171.45C0 170.97 0.00746385 170.491 0.0214844 170.014C0.00798909 169.344 0 168.673 0 168C0 113.324 44.7715 69 100 69ZM159 144.24C152.373 144.24 147 149.559 147 156.12C147 162.681 152.373 168 159 168C165.627 168 171 162.681 171 156.12C171 149.559 165.627 144.24 159 144.24ZM135 118.5C128.373 118.5 123 123.819 123 130.38C123 136.941 128.373 142.26 135 142.26C141.627 142.26 147 136.941 147 130.38C147 123.819 141.627 118.5 135 118.5ZM100 111.57C93.3726 111.57 88 116.889 88 123.45C88.0001 130.011 93.3727 135.33 100 135.33C106.627 135.33 112 130.011 112 123.45C112 116.889 106.627 111.57 100 111.57ZM165 111.57C158.373 111.57 153 116.889 153 123.45C153 130.011 158.373 135.33 165 135.33C171.627 135.33 177 130.011 177 123.45C177 116.889 171.627 111.57 165 111.57ZM129 87.8096C122.373 87.8096 117 93.1293 117 99.6904C117 106.251 122.373 111.57 129 111.57C135.627 111.57 141 106.251 141 99.6904C141 93.1293 135.627 87.8096 129 87.8096ZM220 0C220 27.5 245.5 50 270 50C245.5 50 220 73.5 220 100C220 73.5 197 50 170 50C197 50 220 27.5 220 0Z" fill="black"/>
</svg>
